<svg xmlns="http://www.w3.org/2000/svg" xmlns:xlink="http://www.w3.org/1999/xlink" version="1.1" id="Layer_1" x="0px" y="0px" style="enable-background:new 0 0 841.9 595.3;" xml:space="preserve" viewBox="120.8 148.7 613.4 290.2">
<style type="text/css">
	.st0{fill:#831714;}
	.st1{fill:#FFFFFF;}
	.st2{fill:#F6ECE1;}
	.st3{fill:#D0C5BD;}
	.st4{fill:#D0C5BD;stroke:#FFFFFF;stroke-miterlimit:10;}
</style>
<path class="st0" d="M441.6,239.3c0,32.6-17.2,61.1-43,77.1c-13.8,8.6-30.1,13.5-47.6,13.5c-50,0-90.6-40.6-90.6-90.6  c0-18.9,5.8-36.4,15.6-50.9c16.3-24,43.8-39.7,74.9-39.7C401,148.7,441.6,189.3,441.6,239.3z"/>
<path class="st0" d="M233.2,311.5c-5.1,0-9.8-1.6-13.7-4.2c-3.9,2.7-8.7,4.2-13.7,4.2h-16.4c-5,0-9.7-1.5-13.7-4.2  c-3.9,2.7-8.6,4.2-13.7,4.2h-16.9c-13.4,0-24.3-10.9-24.3-24.3v-92.4c0-13.4,10.9-24.3,24.3-24.3h33.4c7.6,0,14.6,3.6,19.1,9.3  c4.5-5.7,11.5-9.3,19.1-9.3h33.3c13.4,0,24.3,10.9,24.3,24.3v92.4c0,13.4-10.9,24.3-24.3,24.3H233.2z"/>
<path class="st1" d="M145.1,190.6h33.4c2,0,3.7,1.3,4.2,3.2l10.8,41.9c1.1,4.3,7.3,4.3,8.4,0l10.7-41.9c0.5-1.9,2.2-3.2,4.2-3.2  h33.3c2.4,0,4.3,1.9,4.3,4.3v92.4c0,2.4-1.9,4.3-4.3,4.3h-16.9c-2.4,0-4.3-1.9-4.3-4.3v-38.4c0-5.1-7.2-6-8.5-1.1L210,288.3  c-0.5,1.9-2.2,3.2-4.2,3.2h-16.4c-2,0-3.7-1.3-4.2-3.2l-10.3-40.5c-1.3-4.9-8.5-4-8.5,1.1v38.3c0,2.4-1.9,4.3-4.3,4.3h-16.9  c-2.4,0-4.3-1.9-4.3-4.3v-92.4C140.8,192.5,142.7,190.6,145.1,190.6z"/>
<path class="st0" d="M482.7,313.4c-10.7,0-20.5-6.8-24.3-16.8l-33.6-89c-3-8-1.9-16.9,2.9-24c4.9-7,12.8-11.2,21.4-11.2h19.5  c11.4,0,21.4,7.3,24.8,18.2l2.2,7.1l2.2-7c3.4-11,13.4-18.3,24.8-18.3h18.6c8.5,0,16.5,4.2,21.3,11.2c4.9,7,6,15.9,3,23.9l-33,89  c-3.8,10.1-13.6,16.9-24.4,16.9H482.7z"/>
<path class="st1" d="M449.1,192.4h19.5c2.6,0,4.9,1.7,5.7,4.2l15.7,50.1c1.8,5.6,9.7,5.6,11.4,0l15.4-50c0.8-2.5,3.1-4.2,5.7-4.2  h18.6c4.2,0,7.1,4.2,5.6,8.1l-33,89c-0.9,2.3-3.1,3.9-5.6,3.9h-25.5c-2.5,0-4.7-1.5-5.6-3.9l-33.6-89  C442,196.6,444.9,192.4,449.1,192.4z"/>
<path class="st0" d="M574.2,313.4c-14.3,0-25.9-11.6-25.9-25.9v-89.3c0-14.3,11.6-25.9,25.9-25.9h19.5c14.3,0,25.9,11.6,25.9,25.9  v89.3c0,14.3-11.6,25.9-25.9,25.9H574.2z"/>
<path class="st1" d="M574.2,192.4h19.5c3.2,0,5.9,2.6,5.9,5.9v89.3c0,3.2-2.6,5.9-5.9,5.9h-19.5c-3.2,0-5.9-2.6-5.9-5.9v-89.3  C568.4,195,571,192.4,574.2,192.4z"/>
<path class="st0" d="M636.4,313.4c-15.1,0-27.4-12.3-27.4-27.4v-86.2c0-15.1,12.3-27.4,27.4-27.4h68.9c15.1,0,27.4,12.3,27.4,27.4  v6.8c0,7-2.6,13.3-6.9,18.1c2,3.8,3.1,8.1,3.1,12.7v5.8c0,5.2-1.4,10-4,14.2c5.7,5,9.3,12.4,9.3,20.5v8.1  c0,15.1-12.3,27.4-27.4,27.4H636.4z"/>
<path class="st1" d="M636.4,192.4h68.9c4.1,0,7.4,3.3,7.4,7.4v6.8c0,4.1-3.3,7.4-7.4,7.4h-37.6c-4.1,0-7.4,3.3-7.4,7.4v1.3  c0,4.1,3.3,7.4,7.4,7.4h33.8c4.1,0,7.4,3.3,7.4,7.4v5.8c0,4.1-3.3,7.4-7.4,7.4h-33.8c-4.1,0-7.4,3.3-7.4,7.4v5.2  c0,4.1,3.3,7.4,7.4,7.4h39.1c4.1,0,7.4,3.3,7.4,7.4v8.1c0,4.1-3.3,7.4-7.4,7.4h-70.4c-4.1,0-7.4-3.3-7.4-7.4v-86.2  C629,195.7,632.3,192.4,636.4,192.4z"/>
<path class="st0" d="M231.1,434.8c-7.7,0-14.8-3.8-19.2-10.1l-2.1-3.1c-3.7,7.8-11.7,13.2-20.9,13.2H171  c-12.8,0-23.2-10.4-23.2-23.2v-84.3c0-12.8,10.4-23.2,23.2-23.2h19.9c7.7,0,14.9,3.8,19.2,10.1l2.2,3.2c3.7-7.9,11.7-13.4,21-13.4  h17.9c12.8,0,23.2,10.4,23.2,23.2v84.3c0,12.8-10.4,23.2-23.2,23.2H231.1z"/>
<path class="st1" d="M171,322.6h19.9c1.5,0,3,0.8,3.9,2l25.3,37.2c2.6,3.8,8.5,2,8.5-2.6v-32c0-2.6,2.1-4.7,4.7-4.7h17.9  c2.6,0,4.7,2.1,4.7,4.7v84.3c0,2.6-2.1,4.7-4.7,4.7h-20.1c-1.5,0-3-0.8-3.9-2l-25.1-36.9c-2.6-3.8-8.5-2-8.5,2.6v31.6  c0,2.6-2.1,4.7-4.7,4.7H171c-2.6,0-4.7-2.1-4.7-4.7v-84.3C166.4,324.7,168.5,322.6,171,322.6z"/>
<path class="st0" d="M398.5,438.9c-14.7,0-27.3-2.8-37.3-8.2c-10.7-5.8-19.1-14.4-24.8-25.7c-5.4-10.5-8.1-22.4-8.1-35.6  c0-13.9,3-26.3,9-37c6.3-11.3,15.6-20,27.7-25.8c9.4-4.5,20.8-6.6,34.9-6.6c13.1,0,23.2,1.3,30.7,4.1c8.4,3.1,15.6,8,21.2,14.6  c3.3,3.9,6.2,8.4,8.4,13.4c3,6.6,2.9,14.1-0.1,20.6c3.5,4.3,5.6,9.8,5.6,15.7v32.5c0,8.5-4.2,16.3-11.3,20.9  c-9.4,6.1-17.8,10.3-25.6,12.9C420,437.5,409.8,438.9,398.5,438.9z"/>
<path class="st1" d="M400,377v-8.7c0-3.2,2.6-5.8,5.8-5.8h34.8c3.2,0,5.8,2.6,5.8,5.8v32.5c0,1.9-1,3.8-2.6,4.8  c-7.8,5.1-14.8,8.7-21,10.6c-6.8,2.2-14.9,3.3-24.3,3.3c-11.5,0-20.9-2-28.2-5.9c-7.3-3.9-12.9-9.8-16.9-17.6c-4-7.8-6-16.7-6-26.8  c0-10.6,2.2-19.8,6.6-27.7c4.4-7.8,10.8-13.8,19.2-17.9c6.6-3.1,15.4-4.7,26.6-4.7c10.7,0,18.8,1,24.1,2.9c5.3,1.9,9.7,5,13.3,9  c2.2,2.5,4,5.4,5.5,8.7c1.5,3.4-0.6,7.3-4.3,8l-17.8,3.2c-2.4,0.4-4.8-0.7-6-2.8c-1.1-2-2.6-3.6-4.5-4.8c-2.8-1.9-6.5-2.9-10.9-2.9  c-6.6,0-11.8,2.3-15.7,6.9s-5.9,11.8-5.9,21.7c0,10.5,2,18,5.9,22.5s9.5,6.8,16.5,6.8c3.4,0,6.6-0.5,9.6-1.5  c2.2-0.7,4.7-1.8,7.4-3.2c1.9-1,3-3,3-5.1l0,0c0-3.2-2.6-5.8-5.8-5.8h-8.5C402.6,382.8,400,380.2,400,377z"/>
<path class="st0" d="M550,434.8c-9.6,0-18-5.5-22.2-13.5c-4.2,8-12.6,13.5-22.2,13.5h-18.4c-13.8,0-25-11.2-25-25v-85.5  c0-13.8,11.2-25,25-25h18.4c9.6,0,18,5.5,22.2,13.5c4.2-8,12.6-13.5,22.2-13.5h18.6c13.8,0,25,11.2,25,25v85.5c0,13.8-11.2,25-25,25  H550z"/>
<path class="st1" d="M487.2,318.4h18.4c3.2,0,5.8,2.6,5.8,5.8v22.4c0,3.2,2.6,5.8,5.8,5.8h21.2c3.2,0,5.8-2.6,5.8-5.8v-22.4  c0-3.2,2.6-5.8,5.8-5.8h18.6c3.2,0,5.8,2.6,5.8,5.8v85.5c0,3.2-2.6,5.8-5.8,5.8H550c-3.2,0-5.8-2.6-5.8-5.8V382  c0-3.2-2.6-5.8-5.8-5.8h-21.2c-3.2,0-5.8,2.6-5.8,5.8v27.7c0,3.2-2.6,5.8-5.8,5.8h-18.4c-3.2,0-5.8-2.6-5.8-5.8v-85.5  C481.4,321,483.9,318.4,487.2,318.4z"/>
<path class="st0" d="M638.2,434.8c-14.6,0-26.6-11.9-26.6-26.6v-46.6h-4c-14.6,0-26.6-11.9-26.6-26.6v-9.3  c0-14.7,11.9-26.6,26.6-26.6h76.6c14.6,0,26.6,11.9,26.6,26.6v9.3c0,14.7-11.9,26.6-26.6,26.6h-4v46.6c0,14.7-11.9,26.6-26.6,26.6  H638.2z"/>
<path class="st1" d="M607.6,318.4h76.6c4.1,0,7.3,3.3,7.3,7.3v9.3c0,4.1-3.3,7.3-7.3,7.3h-15.9c-4.1,0-7.3,3.3-7.3,7.3v58.5  c0,4.1-3.3,7.3-7.3,7.3h-15.3c-4.1,0-7.3-3.3-7.3-7.3v-58.5c0-4.1-3.3-7.3-7.3-7.3h-15.9c-4.1,0-7.3-3.3-7.3-7.3v-9.3  C600.2,321.7,603.5,318.4,607.6,318.4z"/>
<path class="st0" d="M295.1,434.8c-13.2,0-24-10.8-24-24v-82.7c0-13.2,10.8-24,24-24h18.1c13.2,0,24,10.8,24,24v82.7  c0,13.2-10.8,24-24,24H295.1z"/>
<path class="st1" d="M295.1,322.6h18.1c3,0,5.4,2.4,5.4,5.4v82.7c0,3-2.4,5.4-5.4,5.4h-18.1c-3,0-5.4-2.4-5.4-5.4v-82.7  C289.7,325.1,292.1,322.6,295.1,322.6z"/>
<path class="st2" d="M421,239.3c0,25.2-13.3,47.2-33.2,59.6c-10.7,6.6-23.3,10.4-36.8,10.4c-38.7,0-70-31.3-70-70  c0-14.6,4.5-28.1,12.1-39.3c12.6-18.5,33.8-30.7,57.9-30.7C389.7,169.3,421,200.6,421,239.3z"/>
<path class="st3" d="M387.8,298.8c-10.7,6.6-23.3,10.4-36.8,10.4c-38.7,0-70-31.3-70-70c0-14.6,4.5-28.1,12.1-39.3  c-1.7,17.2,0.5,39.1,14.4,59.2c18,26,45.2,33.6,55,36.3C371.6,297.8,380.1,298.7,387.8,298.8z"/>
<circle class="st4" cx="344.5" cy="282" r="12.5"/>
<circle class="st4" cx="353.5" cy="196.2" r="8.4"/>
<circle class="st4" cx="357.2" cy="215.6" r="3.8"/>
<circle class="st4" cx="400.4" cy="236.6" r="12.6"/>
<circle class="st4" cx="406" cy="255.5" r="6.6"/>
<circle class="st4" cx="338.1" cy="253.7" r="3.8"/>
<circle class="st4" cx="319" cy="211.8" r="11.4"/>
<circle class="st4" cx="363.4" cy="275.2" r="3.8"/>
<circle class="st4" cx="359.7" cy="239.3" r="8.4"/>
</svg>